<svg width="1463" height="1313" viewBox="0 0 1463 1313" fill="none" xmlns="http://www.w3.org/2000/svg">
<path d="M1.00788 1301.71C4.53739 868.145 5.97288 434.569 9.43484 1.00736C493.534 4.58741 977.642 6.85667 1461.74 10.4166C1459.86 443.989 1457.05 877.555 1453.31 1311.12C969.209 1308.5 485.107 1305.37 1.00788 1301.71Z" stroke="#FEE97D" stroke-width="2" stroke-miterlimit="10"/>
<path d="M1384.19 1310.67C1385.81 1189.16 1354.56 1064.44 1380.17 943.811C1401.56 843.116 1413.73 754.905 1396.85 652.489C1389.08 605.289 1387.52 560.852 1386.97 513.275C1386.41 464.67 1373.69 418.284 1365.65 370.477C1344.83 246.741 1393.69 132.43 1392.75 9.95111" stroke="#FEE97D" stroke-width="2" stroke-miterlimit="10"/>
<path d="M1314.99 1310.22C1309.44 1180.25 1230.6 1028.45 1302.03 905.794C1329.9 857.897 1372.68 810.823 1380.73 755.558C1387.33 710.508 1368.61 673.744 1346.3 634.98C1322.18 593.058 1317.51 561.104 1309.65 514.831C1301.69 467.791 1269.65 433.401 1246.27 392.069C1173.9 264.267 1308.73 136.356 1323.42 9.52205" stroke="#FEE97D" stroke-width="2" stroke-miterlimit="10"/>
<path d="M1245.81 1309.77C1237.37 1221.27 1207 1136.63 1186.2 1050.12C1167.62 972.885 1164.61 926.623 1223.66 866.143C1266.23 822.536 1338.17 777.667 1355.06 718.083C1368.15 671.784 1331.68 643.315 1296.57 616.729C1282.81 606.294 1267.43 596.656 1256.25 583.616C1237.44 561.311 1240.76 541.448 1231.92 516.606C1214.42 468.476 1163.12 447.795 1124.92 414.635C1066.71 364.003 1083.13 314.58 1118.65 253.483C1165.69 172.637 1232.84 99.8666 1254.23 9.1541" stroke="#FEE97D" stroke-width="2" stroke-miterlimit="10"/>
<path d="M1176.66 1309.33C1166.83 1213.87 1128.1 1123.68 1102.17 1031.15C1078.93 948.091 1074.9 902.347 1147.66 843.528C1197.73 803.056 1291.36 760.062 1311.63 696.829C1327.72 646.295 1279.79 624.789 1238.32 606.249C1221.43 598.698 1201.72 592.541 1187.55 580.813C1162.46 560.08 1169.96 542.382 1158.94 516.84C1137.24 466.706 1071.07 454.097 1024.97 427.743C950.065 384.907 975.608 328.021 1016.62 267.787C1074.27 183.117 1160.08 107.483 1185.06 8.72721" stroke="#FEE97D" stroke-width="2" stroke-miterlimit="10"/>
<path d="M1107.53 1308.88C1098.4 1213.33 1058.21 1123.35 1031.85 1030.93C1021.68 995.251 1003.12 947.235 1016.87 910.258C1026.91 883.421 1055.02 861.923 1077.98 844.467C1129.58 805.234 1226.91 764.765 1247.32 700.787C1265.29 644.437 1208.97 627.938 1162.55 612.754C1142.93 606.335 1118.98 601.885 1102.06 589.998C1074.56 570.641 1081.22 553.885 1071.1 527.079C1053.19 479.692 1003.82 450.372 968.658 414.106C953.962 398.947 936.336 380.844 929.641 361.118C916.516 322.494 944.627 282.706 965.62 250.434C1017.82 170.327 1091.99 100.446 1115.8 8.21636" stroke="#FEE97D" stroke-width="2" stroke-miterlimit="10"/>
<path d="M1038.37 1308.43C1029.1 1213.83 988.375 1125.07 961.631 1033.66C951.409 998.789 932.065 950.385 946.755 914.26C957.532 887.811 987.319 867.494 1011 851.293C1063.02 815.632 1167.83 778.035 1188.62 715.128C1209.41 652.222 1118.39 642.597 1072.05 634.694C1008.22 623.814 959.209 618.556 951.43 554.214C944.355 495.806 939.783 436.929 933.564 378.406C926.922 315.846 919.667 260.925 950.808 201.917C985.367 136.579 1034.59 81.0363 1046.77 7.72852" stroke="#FEE97D" stroke-width="2" stroke-miterlimit="10"/>
<path d="M969.219 1307.98C959.691 1214.49 918.42 1127.12 891.24 1037.06C881.012 1003.15 860.725 954.32 876.534 919.252C888.253 893.272 920.013 874.36 944.472 859.575C992.103 830.702 1116.54 791.518 1131.47 731.941C1148.79 662.942 1025.02 664.318 978.233 660.365C922.533 655.668 812.678 658.062 824.633 585.318C838.486 501.151 876.035 419.295 902.793 338.136C914.025 304.127 926.119 268.974 932.741 233.927C938.29 204.641 936.226 175.688 943.8 146.616C956.338 98.5194 977.206 57.7766 977.691 7.22176" stroke="#FEE97D" stroke-width="2" stroke-miterlimit="10"/>
<path d="M900.041 1307.53C890.465 1214.7 848.714 1128.42 821.235 1039.23C810.958 1005.89 790.246 956.728 806.457 922.166C818.671 896.372 851.775 878.456 876.746 864.683C924.202 838.411 1055.58 802.054 1070.44 743.122C1088.92 670.299 937.168 679.157 892.393 677.335C839.423 675.197 697.008 684.68 714.96 607.195C739.052 503.21 812.693 404.426 861.61 309.173C896.046 242.14 925.344 182.536 917.947 107.871C914.607 74.1507 910.749 40.5884 908.537 6.7545" stroke="#FEE97D" stroke-width="2" stroke-miterlimit="10"/>
<path d="M830.894 1307.08C821.477 1213.87 779.031 1127.12 751.262 1037.56C740.763 1003.7 720.049 954.839 736.983 919.899C749.238 894.629 780.605 877.307 805.348 863.875C852.101 838.466 977.263 805.639 992.116 747.816C1010.25 677.229 864.515 680.963 819.188 677.544C765.758 673.507 630.803 678.34 644.845 603.108C663.995 500.765 751.745 403.404 804.071 313.739C840.322 251.457 878.463 185.961 861.3 113.774C852.4 76.3672 839.223 45.7293 839.253 6.40435" stroke="#FEE97D" stroke-width="2" stroke-miterlimit="10"/>
<path d="M761.746 1306.64C751.736 1211.24 707.976 1122.35 679.274 1030.68C656.64 958.361 641.993 904.381 720.515 862.096C764.532 838.383 862.673 815.968 877.563 762.885C895.609 698.851 785.764 682.289 739.183 670.754C687.274 657.894 584.693 642.71 600.327 575.656C620.153 490.62 712.527 416.339 765.908 347.997C813.022 287.682 842.797 234.433 818.553 160.365C801.154 107.233 773.207 62.5041 770.151 5.89652" stroke="#FEE97D" stroke-width="2" stroke-miterlimit="10"/>
<path d="M692.583 1306.19C681.667 1208.01 636.415 1116.44 606.606 1022.11C587.166 960.715 562.499 899.773 630.17 860.422C670.064 837.227 735.366 830.027 750.018 782.327C767.339 725.972 698.275 688.176 655.864 662.128C612.645 635.631 543.805 598.119 563.267 541.435C585.644 476.16 683.784 432.973 736.813 391.168C758.654 373.926 789.478 349.966 799.755 324.138C812.917 290.989 795.524 250.845 782.89 219.808C753.655 147.946 710.98 82.6315 700.964 5.50956" stroke="#FEE97D" stroke-width="2" stroke-miterlimit="10"/>
<path d="M623.404 1305.74C611.918 1205.36 565.374 1111.66 534.564 1015.23C518.829 965.959 485.953 892.945 545.351 858.663C580.768 838.221 623.115 839.524 635.479 797.416C650.492 746.249 606.046 693.709 575.851 655.358C548.068 620.088 495.604 560.801 518.717 514.002C545.138 460.51 646.551 447.433 698.641 425.527C720.655 416.252 752.336 402.542 763.934 381.381C781.799 348.807 753.092 296.248 740.135 266.479C702.418 179.618 647.078 98.4919 631.898 5.14257" stroke="#FEE97D" stroke-width="2" stroke-miterlimit="10"/>
<path d="M554.284 1305.29C543.81 1205.06 495.007 1112.48 463.36 1016.66C446.621 965.995 417.718 898.512 472.595 859.966C503.946 837.985 542.731 832.973 553.791 794.063C567.615 745.752 526.618 689.02 501.721 649.654C479.076 613.792 429.695 547.829 450.601 504.485C476.301 451.251 582.608 447.382 634.305 430.434C657.479 422.84 687.993 412.006 700.178 390.688C718.694 358.36 688.77 302.405 675.809 273.221C636.215 184.231 575.595 101.295 562.711 4.71411" stroke="#FEE97D" stroke-width="2" stroke-miterlimit="10"/>
<path d="M485.116 1304.85C473.857 1211.08 419.652 1128.51 384.44 1040.86C358.49 976.316 350.273 927.48 388.914 868.137C414.865 828.295 456.105 791.778 464.024 744.215C472.736 692.383 438.389 652.008 407.055 612.218C381.907 580.313 330.501 524.562 350.077 481.572C375.065 426.88 492 416.123 544.117 396.798C567.14 388.275 600.184 376.188 612.529 354.488C629.748 324.168 605.324 270.91 592.827 243.181C556.645 162.743 499.226 93.24 493.452 4.32782" stroke="#FEE97D" stroke-width="2" stroke-miterlimit="10"/>
<path d="M415.945 1304.4C401.902 1219.71 341.412 1151.57 301.237 1075.77C263.62 1004.74 272.328 950.105 297.791 877.67C321.305 810.848 357.074 742.937 364.602 672.402C370.26 619.319 339.75 591.312 300.051 556.771C270.405 530.927 217.781 489.466 235.896 446.044C245.044 424.162 278.919 408.893 299.585 399.327C348.143 376.752 400.344 361.905 449.345 340.644C473.348 330.252 511.345 314.829 524.422 291.318C539.959 263.407 523.541 218.712 510.445 193.056C476.804 127.054 424.236 80.3304 424.213 3.85808" stroke="#FEE97D" stroke-width="2" stroke-miterlimit="10"/>
<path d="M346.775 1303.95C330.752 1226.02 264.52 1171.73 219.82 1106.18C170.972 1034.51 191.961 964.547 209.759 886.577C230.615 795.478 262.425 702.776 269.154 609.488C273.087 555.063 245.515 535.827 198.27 508.598C163.745 488.692 109.961 459.283 129.217 413.65C139.713 388.731 180.717 367.882 203.427 355.647C258.404 325.894 318.017 303.492 373.753 274.954C436.401 242.831 498.272 198.704 446.54 130.77C409.364 81.9473 356.635 70.5139 355.044 3.32827" stroke="#FEE97D" stroke-width="2" stroke-miterlimit="10"/>
<path d="M277.605 1303.5C261.573 1226.96 193.947 1179.28 147.446 1117.12C94.8067 1046.68 120.703 970.076 135.778 891.826C155.072 791.662 183.673 690.187 191.56 588.476C195.738 534.376 168.221 517.197 119.398 493.729C80.4067 474.984 28.2871 449.418 52.6052 400.852C67.6158 370.881 115.08 343.359 142.889 326.115C205.626 287.176 273.385 255.247 336.904 217.423C383.266 189.833 507.154 117.127 415.497 70.3115C374.291 49.2728 289.835 62.2978 286.055 2.7411" stroke="#FEE97D" stroke-width="2" stroke-miterlimit="10"/>
<path d="M208.431 1303.05C194.463 1231.17 141.567 1179.6 104.142 1117.16C62.2623 1047.26 81.4953 977.262 94.2751 902.345C109.858 811.837 132.561 720.568 139.099 628.973C142.666 578.902 120.28 555.223 81.0794 523.589C46.9863 496.083 6.86861 463.536 30.6692 418.396C46.8097 387.786 85.5665 359.3 113.354 338.264C166.801 297.934 225.233 263.263 279.463 223.805C327.358 188.985 433.265 118.18 346.084 72.1194C303.581 49.6607 232.6 54.2425 217.04 2.09138" stroke="#FEE97D" stroke-width="2" stroke-miterlimit="10"/>
<path d="M139.332 1302.6C133.774 1236.02 100.429 1179.92 78.1579 1117.52C55.2676 1053.44 65.0479 989.679 73.466 924.171C88.474 807.705 126.795 686.549 66.9332 577.039C46.0375 538.749 23.2469 497.521 37.4231 453.831C60.7908 381.665 141.129 326.646 192.289 270.934C236.509 222.821 277.647 170.916 231.281 112.334C200.013 72.7051 161.868 51.9282 147.894 1.86455" stroke="#FEE97D" stroke-width="2" stroke-miterlimit="10"/>
<path d="M70.2278 1302.16C71.3534 1239.65 57.9618 1179.61 50.5033 1117.85C43.6007 1060.67 46.9741 1002.23 50.6104 944.918C57.3119 838.521 67.0396 734.221 50.41 628.299C43.1218 581.969 36.7581 535.443 40.0567 488.557C44.1241 430.745 74.5459 378.468 94.9362 324.473C136.931 213.223 82.7953 113.088 78.6094 1.51828" stroke="#FEE97D" stroke-width="2" stroke-miterlimit="10"/>
<path d="M8.99118 62.9994C88.976 62.4891 165.664 42.6177 244.933 37.8879C303.14 34.4333 354.073 55.4543 409.889 66.5849C521.768 88.9285 636.005 91.3627 747.439 67.7232C800.134 56.5494 849.064 49.6265 903.542 51.7743C954.171 53.7762 998.646 67.1323 1047.76 76.9087C1181.88 103.45 1325.75 70.6431 1461.41 72.369" stroke="#FEE97D" stroke-width="2" stroke-miterlimit="10"/>
<path d="M8.63542 124.895C107.951 115.777 196.72 73.216 293.991 56.4624C338.241 48.8438 351.686 51.9962 383.191 75.876C404.612 92.1482 422.394 107.146 446.694 120.453C503.259 151.432 571.147 176.072 637.973 180.377C695.998 184.141 731.479 160.816 773.855 129.852C812.543 101.567 853.635 70.5346 907.932 79.7799C955.504 87.8926 969.33 122.528 1001.06 150.019C1048.69 191.185 1116.45 176.298 1176.12 168.698C1271.04 156.588 1364.88 137.775 1460.94 134.243" stroke="#FEE97D" stroke-width="2" stroke-miterlimit="10"/>
<path d="M8.30534 186.763C127.573 166.926 229.063 103.756 344.547 73.6286C393.762 60.7987 411.227 58.633 429.084 100.252C440.841 127.674 462.834 152.904 485.556 173.541C536.19 219.768 612.415 267.916 686.252 277.893C749.92 286.513 776.599 235.019 801.422 191.922C819.368 160.78 857.457 85.9056 912.311 106.387C958.945 123.771 943.071 189.674 952.444 223.453C972.776 296.689 1056.78 266.862 1120.62 255.317C1233.79 234.794 1345.24 205.266 1460.45 196.252" stroke="#FEE97D" stroke-width="2" stroke-miterlimit="10"/>
<path d="M7.87277 248.715C141.067 223.684 251.885 145.651 379.167 105.275C438.6 86.4009 443.888 93.8364 452.583 142.051C458.492 175.324 479.446 208.049 502.176 234.292C550.03 289.274 632.359 350.872 713.016 361.377C784.291 370.672 800.543 301.948 816.729 253.996C826.141 226.106 855.705 118.587 915.955 147.352C962.737 169.697 924.524 260.139 923.295 293.407C920.061 382.462 1021.58 345.569 1087.42 332.04C1211.18 306.626 1333.27 268.878 1460.04 258.184" stroke="#FEE97D" stroke-width="2" stroke-miterlimit="10"/>
<path d="M7.58803 310.677C130.284 289.954 224.901 213.631 339.587 174.565C390.657 157.129 404.044 158.728 417.764 202.882C427.491 234.203 451.147 263.598 474.792 287.588C526.044 339.406 609.517 401.697 689.698 412.643C754.13 421.45 775.574 364.799 793.873 320.813C806.656 290.444 837.703 207.72 893.243 230.223C938.047 248.401 923.304 320.502 931.737 353.489C951.5 431.098 1033.53 400.209 1101.68 387.018C1220.72 363.993 1338.03 330.711 1459.6 320.226" stroke="#FEE97D" stroke-width="2" stroke-miterlimit="10"/>
<path d="M7.07221 372.632C100.214 357.102 156.95 292.351 236.802 253.281C276.152 234.015 282.278 240.73 306.692 267.69C328.514 292.209 353.349 314.451 380.727 333.993C444.652 379.42 529.459 430.507 612.751 440.968C662.586 447.241 691.442 428.108 722.736 397.637C802.636 319.867 870.334 370.239 953.114 414.517C1015.68 447.995 1076.13 438.203 1146.05 427.564C1250.38 411.724 1353.46 388.01 1459.33 382.061" stroke="#FEE97D" stroke-width="2" stroke-miterlimit="10"/>
<path d="M6.51381 434.577C76.1697 422.646 76.7314 370.7 120.861 333.153C159.08 300.731 231.327 361.578 270.39 379.598C348.068 415.413 434.947 456.088 523.386 464.364C562.633 468.027 601.343 471.101 640.395 476.859C752.379 493.436 863.938 481.776 976.853 476.276C1050.08 472.717 1123.97 471.442 1196.9 465.118C1284.31 457.618 1371.04 444.587 1459.07 443.968" stroke="#FEE97D" stroke-width="2" stroke-miterlimit="10"/>
<path d="M6.11366 496.513C70.0012 502.553 26.7765 435.199 36.6428 410.296C54.153 366.386 165.11 416.291 199.266 427.181C284.543 454.394 372.795 491.689 463.938 499.681C518.106 504.428 546.415 517.679 584.865 550.397C621.523 581.731 653.31 603.657 707.162 598.238C804.365 588.422 900.376 557.684 994.771 536.415C1144.93 502.6 1304.06 503.611 1458.58 505.883" stroke="#FEE97D" stroke-width="2" stroke-miterlimit="10"/>
<path d="M5.75627 558.465C70.6114 568.082 22.5197 494.282 29.4493 470.833C44.6445 419.325 166.306 467.848 201.899 479.432C287.599 507.313 372.593 546.987 463.667 558.71C518.811 565.823 548.678 578.358 591.869 609.11C632.103 637.745 667.119 661.749 721.392 657.28C818.945 649.221 915.462 613.183 1009.01 589.891C1159.2 552.548 1304.44 569.985 1458.09 567.895" stroke="#FEE97D" stroke-width="2" stroke-miterlimit="10"/>
<path d="M5.37887 620.412C73.3286 625.047 44.3709 541.712 60.6596 509.087C90.7042 449.003 192.802 500.525 238.476 520C319.944 554.67 402.087 606.808 492.493 620.825C548.415 629.516 600.842 635.503 655.829 649.492C708.5 662.881 764.052 679.919 819.563 675.6C903.82 669.027 986.324 637.778 1066.95 617.428C1138.11 599.457 1203.73 589.052 1277.3 601.548C1338.19 611.865 1394.99 628.084 1457.64 629.821" stroke="#FEE97D" stroke-width="2" stroke-miterlimit="10"/>
<path d="M5.05057 682.29C82.0866 664.256 68.4042 593.483 100.404 540.914C143.42 470.286 231.653 524.3 286.105 554.701C361.423 596.772 441.051 665.351 530.401 682.527C594.428 694.84 673.604 683.677 739.176 683.376C807.653 683.073 878.337 686.294 946.621 681.009C1014.41 675.781 1078.86 651.152 1143.59 634.369C1201.6 619.337 1262.32 606.522 1318.94 632.823C1367.9 655.586 1399.44 685.112 1457.38 691.699" stroke="#FEE97D" stroke-width="2" stroke-miterlimit="10"/>
<path d="M4.66342 744.224C87.8726 722.196 91.5045 637.761 131.627 579.155C184.276 502.217 262.903 554.898 322.74 595.276C393.697 643.107 469.889 724.187 559.285 744.691C629.839 760.838 732.159 732.884 803.193 723.805C883.871 713.499 964.03 707 1044.85 699.376C1099.85 694.187 1148.85 675.527 1201.59 661.954C1250.1 649.442 1310.75 635.053 1351.59 670.71C1390.66 704.823 1395.7 743.152 1456.88 753.693" stroke="#FEE97D" stroke-width="2" stroke-miterlimit="10"/>
<path d="M4.24795 806.128C86.6769 782.885 94.8979 699.126 137.023 640.774C191.759 564.878 266.796 615.66 328.318 656.634C399.458 704.023 473.654 780.29 561.822 802.601C633.468 820.731 739.591 789.636 811.333 778.929C894.277 766.519 975.729 758.435 1059.05 750.687C1110.6 745.878 1156.53 729.135 1206.01 716.69C1253.38 704.776 1314.9 689.969 1353.33 726.417C1391.75 762.865 1392.6 805.866 1456.62 815.598" stroke="#FEE97D" stroke-width="2" stroke-miterlimit="10"/>
<path d="M3.84561 868.141C78.264 850.978 80.9072 790.555 122.111 742.361C172.026 684.201 247.219 721.291 307.473 745.962C380.82 776.022 454.868 819.517 534.981 833.911C606.21 846.715 694.516 827.06 766.01 819.779C842.62 811.987 918.779 807.68 995.442 802.046C1048.27 798.174 1097.61 784.256 1149.12 774.143C1205.1 763.132 1260.42 754.113 1309.86 786.639C1361.43 820.571 1387.81 867.69 1456.2 877.611" stroke="#FEE97D" stroke-width="2" stroke-miterlimit="10"/>
<path d="M3.39014 930.1C65.2567 924.855 61.573 892.161 100.932 861.056C142.079 828.552 225.091 843.933 276.329 845.717C417.458 850.664 557.503 852.681 698.726 850.127C823.126 847.868 941.159 844.801 1064.23 828.92C1129.4 820.509 1187.39 816.831 1247.68 845.96C1317.83 879.871 1374.03 928.837 1455.7 939.469" stroke="#FEE97D" stroke-width="2" stroke-miterlimit="10"/>
<path d="M2.97084 992.107C42.6868 996.297 51.2176 982.901 82.3802 972.677C105.961 964.924 133.259 970.748 157.876 966.41C188.873 960.984 219.923 950.8 249.505 941.19C318.576 918.749 388.18 887.034 461.23 876.012C518.142 867.386 583.316 879.888 640.568 884.898C760.247 895.393 871.422 894.258 990.983 884.889C1063.07 879.306 1125.2 879.346 1193.28 905.721C1280.65 939.562 1359.14 989.782 1455.23 1001.46" stroke="#FEE97D" stroke-width="2" stroke-miterlimit="10"/>
<path d="M2.5894 1053.95C87.3402 1054.64 164.896 1053.61 241.875 1016.66C307.808 985.006 374.485 935.888 450.217 924.46C505.078 916.164 567.808 930.627 622.112 938.702C739.495 956.161 849.651 952.498 967.865 945.843C1041.79 941.683 1103.28 942.687 1173.85 967.768C1267.15 1001.06 1354.35 1050.09 1454.9 1063.34" stroke="#FEE97D" stroke-width="2" stroke-miterlimit="10"/>
<path d="M2.14404 1115.9C94.8457 1116.23 183.787 1120 270.296 1085.65C335.088 1059.85 399.87 1021.65 471.177 1012.09C526.167 1004.72 587.087 1016.98 641.807 1023.42C757.953 1037.12 869.001 1034.77 985.674 1029.68C1057.07 1026.58 1119.15 1027.24 1188.21 1048.2C1276.93 1075.15 1360.76 1113.73 1454.38 1125.26" stroke="#FEE97D" stroke-width="2" stroke-miterlimit="10"/>
<path d="M1.81246 1177.83C107.144 1178.51 218.681 1187.66 320.739 1161.84C383.056 1146.11 444.587 1123.14 509.715 1118.44C564.999 1114.46 622.528 1121.77 677.646 1125.94C791.663 1134.52 903.921 1133.15 1018.17 1130.43C1084.22 1128.84 1147.82 1127.94 1212.81 1141.14C1293.45 1157.5 1371.09 1182.12 1454.12 1187.24" stroke="#FEE97D" stroke-width="2" stroke-miterlimit="10"/>
<path d="M1.48059 1239.78C122.866 1240.56 248.235 1248.73 369.024 1237.34C482.879 1226.45 597.473 1222.9 711.919 1226.73C824.482 1230.43 936.733 1230.06 1049.26 1229.56C1185.04 1228.93 1318.73 1249.46 1453.88 1249.23" stroke="#FEE97D" stroke-width="2" stroke-miterlimit="10"/>
</svg>
