<svg width="40" height="40" viewBox="0 0 40 40" fill="none" xmlns="http://www.w3.org/2000/svg">
<path d="M26.6665 4.99982C28.8766 4.99982 30.9962 5.87779 32.559 7.44059C34.1218 9.0034 34.9998 11.123 34.9998 13.3331V26.6665C34.9998 28.8766 34.1218 30.9962 32.559 32.559C30.9962 34.1218 28.8766 34.9998 26.6665 34.9998H13.3331C11.123 34.9998 9.0034 34.1218 7.44059 32.559C5.87779 30.9962 4.99982 28.8766 4.99982 26.6665V13.3331C4.99982 11.123 5.87779 9.0034 7.44059 7.44059C9.0034 5.87779 11.123 4.99982 13.3331 4.99982H26.6665ZM19.9998 13.3331C18.2317 13.3331 16.536 14.0355 15.2858 15.2858C14.0355 16.536 13.3331 18.2317 13.3331 19.9998C13.3331 21.7679 14.0355 23.4636 15.2858 24.7139C16.536 25.9641 18.2317 26.6665 19.9998 26.6665C21.7679 26.6665 23.4636 25.9641 24.7139 24.7139C25.9641 23.4636 26.6665 21.7679 26.6665 19.9998C26.6665 18.2317 25.9641 16.536 24.7139 15.2858C23.4636 14.0355 21.7679 13.3331 19.9998 13.3331ZM19.9998 16.6665C20.8839 16.6665 21.7317 17.0177 22.3568 17.6428C22.982 18.2679 23.3331 19.1158 23.3331 19.9998C23.3331 20.8839 22.982 21.7317 22.3568 22.3568C21.7317 22.982 20.8839 23.3331 19.9998 23.3331C19.1158 23.3331 18.2679 22.982 17.6428 22.3568C17.0177 21.7317 16.6665 20.8839 16.6665 19.9998C16.6665 19.1158 17.0177 18.2679 17.6428 17.6428C18.2679 17.0177 19.1158 16.6665 19.9998 16.6665ZM27.4998 10.8331C27.0578 10.8331 26.6339 11.0087 26.3213 11.3213C26.0087 11.6339 25.8331 12.0578 25.8331 12.4998C25.8331 12.9418 26.0087 13.3658 26.3213 13.6783C26.6339 13.9909 27.0578 14.1665 27.4998 14.1665C27.9418 14.1665 28.3658 13.9909 28.6783 13.6783C28.9909 13.3658 29.1665 12.9418 29.1665 12.4998C29.1665 12.0578 28.9909 11.6339 28.6783 11.3213C28.3658 11.0087 27.9418 10.8331 27.4998 10.8331Z" fill="white"/>
</svg>
