<svg width="40" height="40" viewBox="0 0 40 40" fill="none" xmlns="http://www.w3.org/2000/svg">
<path d="M31.6672 5.00049C32.5512 5.00049 33.3991 5.35168 34.0242 5.9768C34.6493 6.60192 35.0005 7.44977 35.0005 8.33382V31.6672C35.0005 32.5512 34.6493 33.3991 34.0242 34.0242C33.3991 34.6493 32.5512 35.0005 31.6672 35.0005H8.33382C7.44977 35.0005 6.60192 34.6493 5.9768 34.0242C5.35168 33.3991 5.00049 32.5512 5.00049 31.6672V8.33382C5.00049 7.44977 5.35168 6.60192 5.9768 5.9768C6.60192 5.35168 7.44977 5.00049 8.33382 5.00049H31.6672ZM30.8338 30.8338V22.0005C30.8338 20.5595 30.2614 19.1775 29.2424 18.1585C28.2235 17.1396 26.8415 16.5672 25.4005 16.5672C23.9838 16.5672 22.3338 17.4338 21.5338 18.7338V16.8838H16.8838V30.8338H21.5338V22.6172C21.5338 21.3338 22.5672 20.2838 23.8505 20.2838C24.4693 20.2838 25.0628 20.5297 25.5004 20.9672C25.938 21.4048 26.1838 21.9983 26.1838 22.6172V30.8338H30.8338ZM11.4672 14.2672C12.2098 14.2672 12.922 13.9722 13.4471 13.4471C13.9722 12.922 14.2672 12.2098 14.2672 11.4672C14.2672 9.91715 13.0172 8.65049 11.4672 8.65049C10.7201 8.65049 10.0037 8.94724 9.47547 9.47547C8.94724 10.0037 8.65049 10.7201 8.65049 11.4672C8.65049 13.0172 9.91715 14.2672 11.4672 14.2672ZM13.7838 30.8338V16.8838H9.16715V30.8338H13.7838Z" fill="white"/>
</svg>
