<svg width="40" height="40" viewBox="0 0 40 40" fill="none" xmlns="http://www.w3.org/2000/svg">
<path fill-rule="evenodd" clip-rule="evenodd" d="M32.9645 7.38376C33.3764 7.21041 33.8272 7.15063 34.27 7.21063C34.7128 7.27062 35.1315 7.44821 35.4824 7.72491C35.8332 8.0016 36.1036 8.36729 36.2652 8.7839C36.4268 9.20052 36.4737 9.65283 36.4012 10.0938L32.6212 33.0221C32.2545 35.2338 29.8279 36.5021 27.7995 35.4004C26.1029 34.4788 23.5829 33.0588 21.3162 31.5771C20.1829 30.8354 16.7112 28.4604 17.1379 26.7704C17.5045 25.3254 23.3379 19.8954 26.6712 16.6671C27.9795 15.3988 27.3829 14.6671 25.8379 15.8338C22.0012 18.7304 15.8412 23.1354 13.8045 24.3754C12.0079 25.4688 11.0712 25.6554 9.95121 25.4688C7.90788 25.1288 6.01288 24.6021 4.46621 23.9604C2.37621 23.0938 2.47788 20.2204 4.46455 19.3838L32.9645 7.38376Z" fill="white"/>
</svg>
